<svg xmlns="http://www.w3.org/2000/svg" viewBox="0 0 145.93 145.93"><defs><style>.cls-1{fill:#00131c;}.cls-2{fill:#80a1b1;}</style></defs><g id="Calque_2" data-name="Calque 2"><g id="Calque_1-2" data-name="Calque 1"><circle class="cls-1" cx="72.97" cy="72.97" r="72.97"/><path class="cls-2" d="M45.21,57.8H65v1.57H47V71.23H64v1.58H47v13H65.24v1.58h-20Zm21.6,0h2.11l9.33,13,9.55-13,13-16.54L79.45,72.19l11,15.22H88.25l-10-13.85-10,13.85H66.07L77.14,72.19Zm24.41,1.57V57.8h22.6v1.57H103.41v28h-1.82v-28ZM20.41,57.8h2.27L54,104.67,41.06,87.41,22.31,60l-.08,27.37H20.41Zm93.22,27.56a.66.66,0,0,1,0-1.32.66.66,0,0,1,0,1.32Zm1.79-1.74h1a.89.89,0,0,0,1,.88c.63,0,1-.38,1-1.09V78.89h1v4.52a1.83,1.83,0,0,1-2,2A1.78,1.78,0,0,1,115.42,83.62Zm5.21-.06h1c.09.61.68,1,1.53,1s1.38-.41,1.38-1-.37-.78-1.21-1l-.83-.2c-1.15-.27-1.68-.83-1.68-1.77,0-1.13.93-1.89,2.32-1.89a2.08,2.08,0,0,1,2.3,1.83h-1a1.22,1.22,0,0,0-1.35-1c-.78,0-1.3.38-1.3,1s.33.71,1.16.91l.71.17c1.31.31,1.85.84,1.85,1.8,0,1.22-1,2-2.46,2S120.7,84.7,120.63,83.56Z"/></g></g></svg>